<svg width="34" height="29" viewBox="0 0 34 29" fill="none" xmlns="http://www.w3.org/2000/svg">
<path d="M27.3046 24.2859V24.2859L27.3064 24.2859C27.3909 24.2829 27.4272 24.2971 27.4432 24.3136C27.4581 24.3289 27.469 24.361 27.459 24.4357L27.4587 24.4357L27.4586 24.4406C27.4554 24.5308 27.4571 24.621 27.4588 24.7098L27.459 24.7188C27.4608 24.811 27.4624 24.9017 27.4586 24.9921L27.4582 24.9921L27.4587 24.9985C27.4625 25.0425 27.456 25.0869 27.4397 25.1285C27.4233 25.1701 27.3974 25.208 27.3636 25.2395C27.3298 25.271 27.2889 25.2952 27.2438 25.3103C27.1986 25.3254 27.1504 25.331 27.1026 25.3266L27.1026 25.3264H27.098H27.0858H27.0735H27.0612H27.049H27.0367H27.0244H27.0122H27H26.9877H26.9755H26.9633H26.9511H26.9389H26.9266H26.9144H26.9023H26.8901H26.8779H26.8657H26.8535H26.8414H26.8292H26.8171H26.8049H26.7928H26.7806H26.7685H26.7564H26.7442H26.7321H26.72H26.7079H26.6958H26.6837H26.6716H26.6596H26.6475H26.6354H26.6233H26.6113H26.5992H26.5872H26.5751H26.5631H26.551H26.539H26.527H26.5149H26.5029H26.4909H26.4789H26.4669H26.4549H26.4429H26.4309H26.4189H26.407H26.395H26.383H26.371H26.3591H26.3471H26.3232H26.2993H26.2874H26.2755H26.2636H26.2516H26.2397H26.2278H26.2159H26.204H26.1921H26.1802H26.1683H26.1564H26.1446H26.1327H26.1208H26.1089H26.0971H26.0852H26.0733H26.0615H26.0496H26.0378H26.026H26.0141H26.0023H25.9905H25.9786H25.9668H25.955H25.9432H25.9314H25.9196H25.9078H25.896H25.8842H25.8724H25.8606H25.8488H25.837H25.8253H25.8135H25.8017H25.79H25.7782H25.7664H25.7547H25.7429H25.7312H25.7194H25.7077H25.6959H25.6842H25.6725H25.6608H25.649H25.6373H25.6256H25.6139H25.6022H25.5904H25.5787H25.567H25.5553H25.5436H25.5319H25.5203H25.5086H25.4969H25.4852H25.4735H25.4618H25.4502H25.4385H25.4268H25.4152H25.4035H25.3918H25.3802H25.3685H25.3569H25.3452H25.3336H25.3219H25.3103H25.2986H25.287H25.2754H25.2637H25.2521H25.2405H25.2289H25.2172H25.2056H25.194H25.1824H25.1708H25.1591H25.1475H25.1359H25.1243H25.1127H25.1011H25.0895H25.0779H25.0663H25.0547H25.0431H25.0316H25.02H25.0084H24.9968H24.9852H24.9736H24.9621H24.9505H24.9389H24.9273H24.9158H24.9042H24.8926H24.8811H24.8695H24.8579H24.8464H24.8348H24.8233H24.8117H24.8002H24.7886H24.7771H24.7655H24.754H24.7424H24.7309H24.7193H24.7078H24.6962H24.6847H24.6732H24.6616H24.6501H24.6385H24.627H24.6155H24.6039H24.5924H24.5809H24.5693H24.5578H24.5463H24.5348H24.5232H24.5117H24.5002H24.4887H24.4771H24.4656H24.4541H24.4426H24.4311H24.4195H24.408H24.3965H24.385H24.3735H24.362H24.3504H24.3389H24.3274H24.3159H24.3044H24.2929H24.2814H24.2699H24.2583H24.2468H24.2353H24.2238H24.2123H24.2008H24.1893H24.1778H24.1663H24.1548H24.1433H24.1317H24.1202H24.1087H24.0972H24.0857H24.0742H24.0627H24.0512H24.0397H24.0282H24.0167H24.0052H23.9936H23.9821H23.9706H23.9591H23.9476H23.9361H23.9246H23.9131H23.9016H23.8901H23.8785H23.867H23.8555H23.844H23.8325H23.821H23.8095H23.7979H23.7864H23.7749H23.7634H23.7519H23.7404H23.7288H23.7173H23.7058H23.6943H23.6828H23.6712H23.6597H23.6482H23.6367H23.6251H23.6136H23.6021H23.5905H23.579H23.5675H23.556H23.5444H23.5329H23.5213H23.5098H23.4983H23.4867H23.4752H23.4637H23.4521H23.4406H23.429H23.4175H23.4059H23.3944H23.3828H23.3713H23.3597H23.3482H23.3366H23.325H23.3135H23.3019H23.2904H23.2788H23.2672H23.2557H23.2441H23.2325H23.2209H23.2094H23.1978H23.1862H23.1746H23.163H23.1515H23.1399H23.1283H23.1167H23.1051H23.0935H23.0819H23.0703H23.0587H23.0471H23.0355H23.0239H23.0123H23.0007H22.9891H22.9774H22.9658H22.9542H22.9426H22.9309H22.9193H22.9077H22.8961H22.8844H22.8728H22.8611H22.8495H22.8379H22.8262H22.8146H22.8029H22.7913H22.7796H22.7679H22.7563H22.7446H22.7329H22.7213H22.7096H22.6979H22.6862H22.6745H22.6629H22.6512H22.6395H22.6278H22.6161H22.6044H22.5927H22.581H22.5693H22.5576H22.5458H22.5341H22.5224H22.5107H22.4989H22.4872H22.4755H22.4637H22.452H22.4402H22.4285H22.4167H22.405H22.3932H22.3815H22.3697H22.3579H22.3462H22.3344H22.3226H22.3108H22.299H22.2872H22.2755H22.2637H22.2519H22.24H22.2282H22.2164H22.2046H22.1928H22.181H22.1691H22.1573H22.1455H22.1336H22.1218H22.1099H22.0981H22.0862H22.0744H22.0625H22.0506H22.0388H22.0269H22.015H22.0031H21.9912H21.9793H21.9674H21.9555H21.9436H21.9317H21.9198H21.9079H21.8959H21.884H21.8721H21.8601H21.8482H21.8363H21.8243H21.8123H21.8004H21.7884H21.7764H21.7645H21.7525H21.7405H21.7285H21.7165H21.7045H21.6925H21.6805H21.6685H21.6565H21.6445H21.6324H21.6204H21.6084H21.5963H21.5843H21.5722H21.5602H21.5481H21.536H21.524H21.5119H21.4998H21.4877H21.4756H21.4635H21.0734V25.3262L21.069 25.3266C21.0212 25.3308 20.9731 25.3251 20.928 25.3099C20.8829 25.2947 20.8421 25.2704 20.8083 25.239C20.7746 25.2075 20.7486 25.1697 20.7322 25.1281C20.7158 25.0866 20.7092 25.0423 20.7127 24.9983L20.7129 24.9983V24.9942C20.7129 24.9327 20.7143 24.87 20.7157 24.8067C20.7186 24.6776 20.7216 24.546 20.7128 24.4169L20.6629 24.4203L20.7128 24.417C20.7081 24.3441 20.7248 24.3202 20.7406 24.3089C20.7627 24.2932 20.8032 24.2859 20.8772 24.2859H20.8838H20.8904H20.897H20.9035H20.9101H20.9166H20.9232H20.9297H20.9363H20.9428H20.9493H20.9558H20.9623H20.9688H20.9753H20.9818H20.9883H20.9948H21.0013H21.0078H21.0142H21.0207H21.0271H21.0336H21.04H21.0465H21.0529H21.0594H21.0658H21.0722H21.0786H21.085H21.0914H21.0978H21.1042H21.1106H21.117H21.1234H21.1297H21.1361H21.1425H21.1488H21.1552H21.1615H21.1679H21.1742H21.1806H21.1869H21.1932H21.1995H21.2058H21.2122H21.2185H21.2248H21.2311H21.2374H21.2436H21.2499H21.2562H21.2625H21.2687H21.275H21.2813H21.2875H21.2938H21.3H21.3063H21.3125H21.3187H21.325H21.3312H21.3374H21.3436H21.3498H21.356H21.3622H21.3684H21.3746H21.3808H21.387H21.3932H21.3994H21.4056H21.4117H21.4179H21.4241H21.4302H21.4364H21.4425H21.4487H21.4548H21.461H21.4671H21.4732H21.4793H21.4855H21.4916H21.4977H21.5038H21.5099H21.516H21.5221H21.5282H21.5343H21.5404H21.5465H21.5526H21.5587H21.5648H21.5708H21.5769H21.583H21.589H21.5951H21.6012H21.6072H21.6133H21.6193H21.6254H21.6314H21.6374H21.6435H21.6495H21.6555H21.6616H21.6676H21.6736H21.6796H21.6856H21.6916H21.6976H21.7037H21.7097H21.7157H21.7217H21.7276H21.7336H21.7396H21.7456H21.7516H21.7576H21.7635H21.7695H21.7755H21.7815H21.7874H21.7934H21.7994H21.8053H21.8113H21.8172H21.8232H21.8291H21.8351H21.841H21.847H21.8529H21.8588H21.8648H21.8707H21.8766H21.8826H21.8885H21.8944H21.9003H21.9062H21.9122H21.9181H21.924H21.9299H21.9358H21.9417H21.9476H21.9535H21.9594H21.9653H21.9712H21.9771H21.983H21.9889H21.9948H22.0007H22.0066H22.0124H22.0183H22.0242H22.0301H22.036H22.0418H22.0477H22.0536H22.0594H22.0653H22.0712H22.077H22.0829H22.0888H22.0946H22.1005H22.1064H22.1122H22.1181H22.1239H22.1298H22.1356H22.1415H22.1473H22.1532H22.159H22.1649H22.1707H22.1766H22.1824H22.1882H22.1941H22.1999H22.2058H22.2116H22.2174H22.2233H22.2291H22.2349H22.2408H22.2466H22.2524H22.2583H22.2641H22.2699H22.2758H22.2816H22.2874H22.2932H22.2991H22.3049H22.3107H22.3165H22.3224H22.3282H22.334H22.3398H22.3456H22.3515H22.3573H22.3631H22.3689H22.3747H22.3806H22.3864H22.3922H22.398H22.4038H22.4097H22.4155H22.4213H22.4271H22.4329H22.4387H22.4446H22.4504H22.4562H22.462H22.4678H22.4736H22.4795H22.4853H22.4911H22.4969H22.5027H22.5085H22.5144H22.5202H22.526H22.5318H22.5376H22.5435H22.5493H22.5551H22.5609H22.5667H22.5726H22.5784H22.5842H22.59H22.5958H22.6017H22.6075H22.6133H22.6191H22.625H22.6308H22.6366H22.6424H22.6483H22.6541H22.6599H22.6658H22.6716H22.6774H22.6833H22.6891H22.6949H22.7008H22.7066H22.7124H22.7183H22.7241H22.7299H22.7358H22.7416H22.7475H22.7533H22.7592H22.765H22.7709H22.7767H22.7826H22.7884H22.7943H22.8001H22.806H22.8118H22.8177H22.8236H22.8294H22.8353H22.8411H22.847H22.8529H22.8587H22.8646H22.8705H22.8764H22.8822H22.8881H22.894H22.8999H22.9057H22.9116H22.9175H22.9234H22.9293H22.9352H22.9411H22.947H22.9529H22.9588H22.9647H22.9706H22.9765H22.9824H22.9883H22.9942H23.0001H23.006H23.0119H23.0179H23.0238H23.0297H23.0356H23.0415H23.0475H23.0534H23.0593H23.0653H23.0712H23.0772H23.0831H23.089H23.095H23.1009H23.1069H23.1129H23.1188H23.1248H23.1307H23.1367H23.1427H23.1486H23.1546H23.1606H23.1666H23.1726H23.1785H23.1845H23.1905H23.1965H23.2025H23.2085H23.2145H23.2205H23.2265H23.2325H23.2385H23.2446H23.2506H23.2566H23.2626H23.2686H23.2747H23.2807H23.2868H23.2928H23.2988H23.3049H23.3109H23.317H23.323H23.3291H23.3352H23.3412H23.3473H23.3534H23.3595H23.3655H23.3716H23.3777H23.3838H23.3899H23.396H23.4021H23.4082H23.4143H23.4204H23.4265H23.4327H23.4388H23.4449H23.451H23.4572H23.4633H23.4695H23.4756H23.4818H23.4879H23.4941H23.5002H23.5064H23.5126H23.5187H23.5249H23.5311H23.5373H23.5435H23.5497H23.5559H23.5621H23.5683H23.5745H23.5807H23.5869H23.5931H23.5994H23.6056H23.6118H23.6181H23.6243H23.6306H23.6368H23.6431H23.6494H23.6556H23.6619H23.6682H23.6745H23.6807H23.687H23.6933H23.6996H23.7059H23.7122H23.7186H23.7249H23.7312H23.7375H23.7439H23.7502H23.7565H23.7629H23.7692H23.7756H23.782H23.7883H23.7947H23.8011H23.8075H23.8139H23.8202H23.8266H23.8331H23.8395H23.8459H23.8523H23.8587H23.8651H23.8716H23.878H23.8845H23.8909H23.8974H23.9038H23.9103H23.9168H23.9232H23.9297H23.9362H23.9427H23.9492H23.9557H23.9622H23.9687H23.9753H23.9818H23.9883H23.9949H24.0014H24.0079H24.0144H24.021H24.0275H24.034H24.0406H24.0471H24.0536H24.0601H24.0667H24.0732H24.0797H24.0862H24.0928H24.0993H24.1058H24.1123H24.1189H24.1254H24.1319H24.1384H24.145H24.1515H24.158H24.1645H24.1711H24.1776H24.1841H24.1906H24.1971H24.2037H24.2102H24.2167H24.2232H24.2297H24.2363H24.2428H24.2493H24.2558H24.2623H24.2689H24.2754H24.2819H24.2884H24.2949H24.3014H24.308H24.3145H24.321H24.3275H24.334H24.3405H24.3471H24.3536H24.3601H24.3666H24.3731H24.3796H24.3861H24.3927H24.3992H24.4057H24.4122H24.4187H24.4252H24.4317H24.4382H24.4448H24.4513H24.4578H24.4643H24.4708H24.4773H24.4838H24.4903H24.4968H24.5033H24.5099H24.5164H24.5229H24.5294H24.5359H24.5424H24.5489H24.5554H24.5619H24.5684H24.5749H24.5814H24.5879H24.5945H24.601H24.6075H24.614H24.6205H24.627H24.6335H24.64H24.6465H24.653H24.6595H24.666H24.6725H24.679H24.6855H24.692H24.6985H24.705H24.7115H24.718H24.7245H24.731H24.7375H24.744H24.7505H24.757H24.7635H24.77H24.7765H24.783H24.7895H24.796H24.8025H24.809H24.8155H24.822H24.8285H24.835H24.8415H24.848H24.8545H24.861H24.8675H24.874H24.8805H24.887H24.8935H24.9H24.9065H24.913H24.9195H24.926H24.9325H24.939H24.9455H24.952H24.9585H24.965H24.9715H24.978H24.9844H24.9909H24.9974H25.0039H25.0104H25.0169H25.0234H25.0299H25.0364H25.0429H25.0494H25.0559H25.0624H25.0689H25.0754H25.0818H25.0883H25.0948H25.1013H25.1078H25.1143H25.1208H25.1273H25.1338H25.1403H25.1468H25.1532H25.1597H25.1662H25.1727H25.1792H25.1857H25.1922H25.1987H25.2052H25.2116H25.2181H25.2246H25.2311H25.2376H25.2441H25.2506H25.2571H25.2636H25.27H25.2765H25.283H25.2895H25.296H25.3025H25.309H25.3154H25.3219H25.3284H25.3349H25.3414H25.3479H25.3544H25.3609H25.3673H25.3738H25.3803H25.3868H25.3933H25.3998H25.4062H25.4127H25.4192H25.4257H25.4322H25.4387H25.4452H25.4516H25.4581H25.4646H25.4711H25.4776H25.4841H25.4905H25.497H25.5035H25.51H25.5165H25.523H25.5294H25.5359H25.5424H25.5489H25.5554H25.5619H25.5683H25.5748H25.5813H25.5878H25.5943H25.6007H25.6072H25.6137H25.6202H25.6267H25.6331H25.6396H25.6461H25.6526H25.6591H25.6656H25.672H25.6785H25.685H25.6915H25.698H25.7044H25.7109H25.7174H25.7239H25.7304H25.7368H25.7433H25.7498H25.7563H25.7628H25.7692H25.7757H25.7822H25.7887H25.7952H25.8016H25.8081H25.8146H25.8211H25.8275H25.834H25.8405H25.847H25.8535H25.8599H25.8664H25.8729H25.8794H25.8859H25.8923H25.8988H25.9053H25.9118H25.9182H25.9247H25.9312H25.9377H25.9442H25.9506H25.9571H25.9636H25.9701H25.9765H25.983H25.9895H25.996H26.0025H26.0089H26.0154H26.0219H26.0284H26.0348H26.0413H26.0478H26.0543H26.0607H26.0672H26.0737H26.0802H26.0867H26.0931H26.0996H26.1061H26.1126H26.119H26.1255H26.132H26.1385H26.1449H26.1514H26.1579H26.1644H26.1708H26.1773H26.1838H26.1903H26.1968H26.2032H26.2097H26.2162H26.2227H26.2291H26.2356H26.2421H26.2486H26.255H26.2615H26.268H26.2745H26.2809H26.2874H26.2939H26.3004H26.3068H26.3133H26.3198H26.3263H26.3328H26.3392H26.3457H26.3522H26.3587H26.3651H26.3716H26.3781H26.3846H26.391H26.3975H26.404H26.4105H26.4169H26.4234H26.4299H26.4364H26.4428H26.4493H26.4558H26.4623H26.4687H26.4752H26.4817H26.4882H26.4947H26.5011H26.5076H26.5141H26.5206H26.527H26.5335H26.54H26.5465H26.5529H26.5594H26.5659H26.5724H26.5788H26.5853H26.5918H26.5983H26.6048H26.6112H26.6177H26.6242H26.6307H26.6371H26.6436H26.6501H26.6566H26.663H26.6695H26.676H26.6825H26.689H26.6954H26.7019H26.7084H26.7149H26.7213H26.7278H26.7343H26.7408H26.7472H26.7537H26.7602H26.7667H26.7732H26.7796H26.7861H26.7926H26.7991H26.8055H26.812H26.8185H26.825H26.8315H26.8379H26.8444H26.8509H26.8574H26.8639H26.8703H26.8768H26.8833H26.8898H26.8962H26.9027H26.9092H26.9157H26.9222H26.9286H26.9351H26.9416H26.9481H26.9546H26.961H26.9675H26.974H26.9805H26.987H26.9934H26.9999H27.0064H27.0129H27.0194H27.0258H27.0323H27.0388H27.0453H27.0518H27.0582H27.0647H27.0712H27.0777H27.0842H27.0906H27.0971H27.1036H27.1101H27.1166H27.1231H27.1295H27.136H27.1425H27.149H27.1555H27.1619H27.1684H27.1749H27.1814H27.1879H27.1944H27.2008H27.2073H27.2138H27.2203H27.2268H27.2333H27.2397H27.2462H27.2527H27.2592H27.2657H27.2722H27.2786H27.2851H27.2916H27.2981H27.3046Z" fill="#172B4D" stroke="#172B4D" stroke-width="0.1"/>
<path d="M25.4008 26.1006C25.8133 26.1021 26.1311 26.1033 26.8253 26.0986C26.9096 26.0987 26.9466 26.1126 26.9639 26.13C26.9798 26.146 26.9914 26.1782 26.9845 26.2543L26.9844 26.2543L26.9843 26.257C26.9799 26.3802 26.9814 26.5049 26.9828 26.6284C26.9835 26.6896 26.9843 26.7504 26.9843 26.8106H26.9841L26.9844 26.814C26.9873 26.858 26.9801 26.9022 26.9632 26.9436C26.9462 26.9849 26.9199 27.0225 26.8858 27.0536C26.8518 27.0848 26.8107 27.1087 26.7656 27.1236C26.7204 27.1384 26.6722 27.1438 26.6245 27.1394L26.6245 27.1392H26.6199H21.5539V27.139L21.5493 27.1394C21.5015 27.1438 21.4533 27.1382 21.4081 27.1231C21.363 27.1079 21.3221 27.0837 21.2883 27.0522C21.2545 27.0207 21.2286 26.9828 21.2123 26.9412C21.1959 26.8996 21.1894 26.8553 21.1932 26.8112L21.1934 26.8112V26.8069C21.1934 26.7457 21.1946 26.6832 21.1959 26.6199C21.1985 26.4909 21.2012 26.359 21.1933 26.2299L21.1933 26.2299L21.1933 26.2298C21.1885 26.1568 21.2053 26.1329 21.2211 26.1216C21.2432 26.1059 21.2837 26.0986 21.3577 26.0986H21.3643H21.3709H21.3774H21.384H21.3905H21.3971H21.4036H21.4101H21.4167H21.4232H21.4297H21.4362H21.4427H21.4492H21.4557H21.4622H21.4687H21.4752H21.4817H21.4881H21.4946H21.5011H21.5075H21.514H21.5204H21.5268H21.5333H21.5397H21.5461H21.5525H21.559H21.5654H21.5718H21.5782H21.5846H21.591H21.5973H21.6037H21.6101H21.6165H21.6228H21.6292H21.6355H21.6419H21.6482H21.6546H21.6609H21.6672H21.6736H21.6799H21.6862H21.6925H21.6988H21.7051H21.7114H21.7177H21.724H21.7303H21.7366H21.7429H21.7491H21.7554H21.7617H21.7679H21.7742H21.7805H21.7867H21.7929H21.7992H21.8054H21.8116H21.8179H21.8241H21.8303H21.8365H21.8427H21.8489H21.8552H21.8613H21.8675H21.8737H21.8799H21.8861H21.8923H21.8985H21.9046H21.9108H21.917H21.9231H21.9293H21.9354H21.9416H21.9477H21.9539H21.96H21.9661H21.9723H21.9784H21.9845H21.9906H21.9968H22.0029H22.009H22.0151H22.0212H22.0273H22.0334H22.0395H22.0456H22.0516H22.0577H22.0638H22.0699H22.076H22.082H22.0881H22.0942H22.1002H22.1063H22.1123H22.1184H22.1244H22.1305H22.1365H22.1425H22.1486H22.1546H22.1606H22.1667H22.1727H22.1787H22.1847H22.1907H22.1968H22.2028H22.2088H22.2148H22.2208H22.2268H22.2328H22.2388H22.2448H22.2507H22.2567H22.2627H22.2687H22.2747H22.2806H22.2866H22.2926H22.2986H22.3045H22.3105H22.3164H22.3224H22.3284H22.3343H22.3403H22.3462H22.3522H22.3581H22.3641H22.37H22.3759H22.3819H22.3878H22.3937H22.3997H22.4056H22.4115H22.4174H22.4234H22.4293H22.4352H22.4411H22.447H22.4529H22.4588H22.4648H22.4707H22.4766H22.4825H22.4884H22.4943H22.5002H22.5061H22.512H22.5179H22.5237H22.5296H22.5355H22.5414H22.5473H22.5532H22.5591H22.5649H22.5708H22.5767H22.5826H22.5884H22.5943H22.6002H22.6061H22.6119H22.6178H22.6237H22.6295H22.6354H22.6413H22.6471H22.653H22.6588H22.6647H22.6705H22.6764H22.6823H22.6881H22.694H22.6998H22.7057H22.7115H22.7174H22.7232H22.7291H22.7349H22.7408H22.7466H22.7524H22.7583H22.7641H22.77H22.7758H22.7817H22.7875H22.7933H22.7992H22.805H22.8108H22.8167H22.8225H22.8284H22.8342H22.84H22.8459H22.8517H22.8575H22.8634H22.8692H22.875H22.8809H22.8867H22.8925H22.8983H22.9042H22.91H22.9158H22.9217H22.9275H22.9333H22.9392H22.945H22.9508H22.9566H22.9625H22.9683H22.9741H22.98H22.9858H22.9916H22.9975H23.0033H23.0091H23.0149H23.0208H23.0266H23.0324H23.0383H23.0441H23.0499H23.0558H23.0616H23.0674H23.0733H23.0791H23.0849H23.0908H23.0966H23.1024H23.1083H23.1141H23.1199H23.1258H23.1316H23.1375H23.1433H23.1491H23.155H23.1608H23.1667H23.1725H23.1783H23.1842H23.19H23.1959H23.2017H23.2076H23.2134H23.2193H23.2251H23.231H23.2368H23.2427H23.2485H23.2544H23.2602H23.2661H23.272H23.2778H23.2837H23.2895H23.2954H23.3013H23.3071H23.313H23.3189H23.3247H23.3306H23.3365H23.3424H23.3482H23.3541H23.36H23.3659H23.3717H23.3776H23.3835H23.3894H23.3953H23.4012H23.4071H23.4129H23.4188H23.4247H23.4306H23.4365H23.4424H23.4483H23.4542H23.4601H23.466H23.472H23.4779H23.4838H23.4897H23.4956H23.5015H23.5074H23.5134H23.5193H23.5252H23.5311H23.5371H23.543H23.5489H23.5549H23.5608H23.5668H23.5727H23.5786H23.5846H23.5905H23.5965H23.6025H23.6084H23.6144H23.6203H23.6263H23.6323H23.6382H23.6442H23.6502H23.6561H23.6621H23.6681H23.6741H23.6801H23.6861H23.6921H23.6981H23.7041H23.71H23.7161H23.7221H23.7281H23.7341H23.7401H23.7461H23.7521H23.7581H23.7642H23.7702H23.7762H23.7823H23.7883H23.7943H23.8004H23.8064H23.8125H23.8185H23.8246H23.8306H23.8367H23.8428H23.8488H23.8549H23.861H23.867H23.8731H23.8792H23.8853H23.8914H23.8975H23.9036H23.9097H23.9158H23.9219H23.928H23.9341H23.9402H23.9464H23.9525H23.9586H23.9647H23.9709H23.977H23.9832H23.9893H23.9954H24.0016H24.0078H24.0139H24.0201H24.0263H24.0324H24.0386H24.0448H24.051H24.0572H24.0633H24.0695H24.0757H24.0819H24.0882H24.0944H24.1006H24.1068H24.113H24.1193H24.1255H24.1317H24.138H24.1442H24.1505H24.1567H24.163H24.1692H24.1755H24.1818H24.188H24.1943H24.2006H24.2069H24.2132H24.2195H24.2258H24.2321H24.2384H24.2447H24.251H24.2574H24.2637H24.27H24.2764H24.2827H24.289H24.2954H24.3018H24.3081H24.3145H24.3209H24.3272H24.3336H24.34H24.3464H24.3528H24.3592H24.3656H24.372H24.3784H24.3848H24.3913H24.3977H24.4041H24.4106H24.417H24.4235H24.4299H24.4364H24.4428H24.4493H24.4558H24.4623C24.8753 26.0986 25.1549 26.0997 25.4008 26.1006Z" fill="#172B4D" stroke="#172B4D" stroke-width="0.1"/>
<path d="M25.5536 27.9078L25.5536 27.9078C25.6384 27.9072 25.6765 27.9225 25.6934 27.9399C25.7084 27.9554 25.7189 27.986 25.7078 28.0551L25.7072 28.055V28.063C25.7072 28.1257 25.7079 28.1878 25.7087 28.2496C25.7101 28.3717 25.7115 28.4925 25.7072 28.6143L25.7069 28.6143L25.7073 28.6197C25.7106 28.6638 25.7037 28.7081 25.687 28.7496C25.6703 28.7911 25.6443 28.8289 25.6104 28.8603C25.5766 28.8918 25.5357 28.916 25.4906 28.9313C25.4456 28.9466 25.3974 28.9525 25.3496 28.9485L25.3496 28.9483H25.3454H25.3332H25.321H25.309H25.297H25.2851H25.2733H25.2615H25.2499H25.2383H25.2268H25.2154H25.2041H25.1929H25.1817H25.1707H25.1597H25.1488H25.1379H25.1272H25.1165H25.1059H25.0954H25.085H25.0746H25.0644H25.0542H25.0441H25.034H25.024H25.0142H25.0043H24.9946H24.9849H24.9754H24.9658H24.9564H24.947H24.9378H24.9285H24.9194H24.9103H24.9013H24.8924H24.8835H24.8748H24.866H24.8574H24.8488H24.8403H24.8319H24.8235H24.8152H24.807H24.7989H24.7908H24.7828H24.7748H24.7669H24.7591H24.7513H24.721H24.6917H24.6845H24.6774H24.6703H24.6633H24.6564H24.6496H24.6428H24.636H24.6293H24.6227H24.6162H24.6097H24.6032H24.5969H24.5905H24.5843H24.5781H24.5719H24.5658H24.5598H24.5538H24.5479H24.542H24.5362H24.5305H24.5248H24.5191H24.5135H24.508H24.5025H24.4971H24.4917H24.4864H24.4811H24.4759H24.4707H24.4656H24.4605H24.4555H24.4505H24.4456H24.4408H24.4359H24.4312H24.4264H24.4218H24.4171H24.4126H24.408H24.4036H24.3991H24.3947H24.3904H24.3861H24.3818H24.3776H24.3734H24.3693H24.3652H24.3612H24.3572H24.3533H24.3494H24.3455H24.3417H24.3379H24.3342H24.3305H24.3268H24.3232H24.3196H24.3161H24.3126H24.3091H24.3057H24.3023H24.2989H24.2956H24.2924H24.2891H24.2859H24.2828H24.2796H24.2765H24.2735H24.2705H24.2675H24.2645H24.2616H24.2587H24.2558H24.253H24.2502H24.2475H24.2447H24.242H24.2394H24.2367H24.2341H24.2316H24.229H24.2265H24.224H24.2216H24.2191H24.2167H24.2144H24.212H24.2097H24.2074H24.2051H24.2029H24.2007H24.1985H24.1963H24.1942H24.1921H24.19H24.1879H24.1859H24.1838H24.1818H24.1799H24.1779H24.176H24.1741H24.1722H24.1703H24.1684H24.1666H24.1648H24.163H24.1612H24.1595H24.1577H24.156H24.1543H24.1526H24.151H24.1493H24.1477H24.1461H24.1445H24.1429H24.1413H24.1397H24.1382H24.1366H24.1351H24.1336H24.1321H24.1307H24.1292H24.1277H24.1263H24.1249H24.1234H24.122H24.1206H24.1192H24.1178H24.1165H24.1151H24.1137H24.1084H24.1071H24.1058H24.1045H24.1031H24.1019H24.1006H24.0993H24.098H24.0967H24.0954H24.0942H24.0929H24.0916H24.0904H24.0891H24.0879H24.0866H24.0853H24.0841H24.0828H24.0816H24.0803H24.0791H24.0778H24.0765H24.0753H24.074H24.0728H24.0715H24.0702H24.0689H24.0677H24.0664H24.0651H24.0638H24.0625H24.0612H24.0599H24.0586H24.0573H24.0519H24.0506H24.0492H24.0478H24.0464H24.045H24.0436H24.0422H24.0408H24.0394H24.0379H24.0365H24.035H24.0335H24.032H24.0305H24.029H24.0275H24.0259H24.0244H24.0228H24.0212H24.0196H24.018H24.0163H24.0147H24.013H24.0113H24.0096H24.0079H24.0062H24.0044H24.0026H24.0009H23.999H23.9972H23.9954H23.9935H23.9916H23.9897H23.9877H23.9858H23.9838H23.9818H23.9798H23.9777H23.9757H23.9736H23.9715H23.9693H23.9672H23.965H23.9628H23.9605H23.9583H23.956H23.9536H23.9513H23.9489H23.9465H23.9441H23.9416H23.9391H23.9366H23.9341H23.9315H23.9289H23.9263H23.9236H23.9209H23.9182H23.9154H23.9126H23.9098H23.907H23.9041H23.9011H23.8982H23.8952H23.8922H23.8891H23.886H23.8829H23.8797H23.8765H23.8733H23.87H23.8667H23.8634H23.86H23.8566H23.8531H23.8496H23.8461H23.8425H23.8389H23.8352H23.8315H23.8278H23.824H23.8201H23.8163H23.8124H23.8084H23.8044H23.8004H23.7963H23.7922H23.788H23.7838H23.7796H23.7753H23.7709H23.7665H23.7621H23.7576H23.7531H23.7485H23.7439H23.7392H23.7345H23.7297H23.7249H23.72H23.7151H23.7101H23.7051H23.7001H23.6949H23.6898H23.6846H23.6793H23.674H23.6686H23.6631H23.6577H23.6521H23.6465H23.6409H23.6352H23.6294H23.6236H23.6178H23.6118H23.6059H23.5998H23.5937H23.5876H23.5814H23.5751H23.5688H23.5624H23.556H23.5495H23.5429H23.5363H23.5296H23.5229H23.5161H23.5092H23.5023H23.4953H23.4883H23.4812H23.474H23.4668H23.4595H23.4521H23.4447H23.4372H23.4296H23.422H23.4143H23.4066H23.3987H23.3909H23.3829H23.3749H23.3668H23.3586H23.3504H23.3421H23.3338H23.3253H23.3168H23.3082H23.2996H23.2909H23.2821H23.2733H23.2643H23.2553H23.2463H23.2371H23.2279H23.2186H23.2092H23.1998H23.1903H23.1807H23.171H22.8202V28.9481L22.8156 28.9485C22.7679 28.9529 22.7197 28.9473 22.6745 28.9322C22.6294 28.917 22.5885 28.8928 22.5547 28.8613C22.5209 28.8298 22.495 28.7919 22.4786 28.7503C22.4623 28.7088 22.4558 28.6644 22.4596 28.6203L22.4597 28.6204V28.6161C22.4597 28.5548 22.461 28.4923 22.4623 28.4292C22.4649 28.3006 22.4676 28.1693 22.4596 28.0403L22.4596 28.0403L22.4596 28.0401C22.4549 27.9672 22.4716 27.9428 22.4877 27.9312C22.5098 27.9153 22.5503 27.9078 22.6241 27.9078H22.6306H22.6371H22.6436H22.6501H22.6565H22.6628H22.6691H22.6754H22.6817H22.6879H22.694H22.7001H22.7062H22.7123H22.7183H22.7243H22.7302H22.7361H22.742H22.7478H22.7536H22.7593H22.765H22.7707H22.7763H22.7819H22.7875H22.793H22.7985H22.804H22.8094H22.8148H22.8202H22.8255H22.8308H22.836H22.8412H22.8464H22.8516H22.8567H22.8618H22.8668H22.8718H22.8768H22.8818H22.8867H22.8915H22.8964H22.9012H22.906H22.9107H22.9155H22.9201H22.9248H22.9294H22.934H22.9386H22.9431H22.9476H22.9521H22.9565H22.9609H22.9653H22.9696H22.9739H22.9782H22.9825H22.9867H22.9909H22.9951H22.9992H23.0033H23.0074H23.0114H23.0154H23.0194H23.0234H23.0273H23.0312H23.0351H23.039H23.0428H23.0466H23.0504H23.0541H23.0578H23.0615H23.0652H23.0688H23.0724H23.076H23.0796H23.0831H23.0866H23.0901H23.0936H23.097H23.1004H23.1038H23.1071H23.1105H23.1138H23.1171H23.1203H23.1236H23.1268H23.13H23.1331H23.1363H23.1394H23.1425H23.1456H23.1486H23.1517H23.1547H23.1576H23.1606H23.1635H23.1665H23.1694H23.1722H23.1751H23.1779H23.1807H23.1835H23.1863H23.1891H23.1918H23.1945H23.1972H23.1999H23.2025H23.2051H23.2078H23.2103H23.2129H23.2155H23.218H23.2205H23.223H23.2255H23.228H23.2304H23.2328H23.2353H23.2376H23.24H23.2424H23.2447H23.247H23.2493H23.2516H23.2539H23.2562H23.2584H23.2606H23.2628H23.265H23.2672H23.2694H23.2715H23.2737H23.2758H23.2779H23.28H23.2821H23.2841H23.2862H23.2882H23.2902H23.2922H23.2942H23.2962H23.2982H23.3001H23.3021H23.304H23.3059H23.3078H23.3097H23.3116H23.3134H23.3153H23.3171H23.319H23.3208H23.3226H23.3244H23.3262H23.328H23.3297H23.3315H23.3332H23.335H23.3367H23.3384H23.3401H23.3418H23.3435H23.3452H23.3469H23.3485H23.3502H23.3518H23.3534H23.3551H23.3567H23.3583H23.3599H23.3615H23.3631H23.3647H23.3663H23.3678H23.3694H23.371H23.3725H23.374H23.3756H23.3771H23.3786H23.3802H23.3817H23.3832H23.3847H23.3862H23.3877H23.3892H23.3907H23.3921H23.3936H23.3951H23.3965H23.398H23.3995H23.4009H23.4024H23.4038H23.4053H23.4067H23.4082H23.4096H23.4111H23.4125H23.4139H23.4154H23.4168H23.4182H23.4196H23.4211H23.4225H23.4239H23.4253H23.4268H23.4282H23.4296H23.431H23.4324H23.4339H23.4353H23.4367H23.4381H23.4396H23.441H23.4424H23.4438H23.4453H23.4467H23.4481H23.4496H23.451H23.4524H23.4539H23.4553H23.4568H23.4582H23.4597H23.4611H23.4626H23.464H23.4655H23.467H23.4684H23.4699H23.4714H23.4729H23.4744H23.4759H23.4774H23.4789H23.4804H23.4819H23.4834H23.4849H23.4865H23.488H23.4895H23.4911H23.4926H23.4942H23.4958H23.4973H23.4989H23.5005H23.5021H23.5037H23.5053H23.5069H23.5086H23.5102H23.5119H23.5135H23.5152H23.5168H23.5185H23.5202H23.5219H23.5236H23.5253H23.5271H23.5288H23.5305H23.5323H23.5341H23.5358H23.5376H23.5394H23.5412H23.543H23.5449H23.5467H23.5486H23.5504H23.5523H23.5542H23.5561H23.558H23.5599H23.5619H23.5638H23.5658H23.5678H23.5698H23.5718H23.5738H23.5758H23.5779H23.5799H23.582H23.5841H23.5862H23.5883H23.5904H23.5926H23.5948H23.5969H23.5991H23.6013H23.6036H23.6058H23.6081H23.6103H23.6126H23.6149H23.6172H23.6196H23.6219H23.6243H23.6267H23.6291H23.6315H23.634H23.6364H23.6389H23.6414H23.6439H23.6465H23.649H23.6516H23.6542H23.6568H23.6594H23.6621H23.6647H23.6674H23.6701H23.6729H23.6756H23.6784H23.6812H23.684H23.6868H23.6897H23.6925H23.6954H23.6984H23.7013H23.7043H23.7072H23.7102H23.7133H23.7163H23.7194H23.7225H23.7256H23.7287H23.7319H23.7351H23.7383H23.7415H23.7448H23.7481H23.7514H23.7547H23.7581H23.7614H23.7649H23.7683H23.7717H23.7752H23.7787H23.7823H23.7858H23.7894H23.793H23.7966H23.8003H23.804H23.8077H23.8114H23.8152H23.819H23.8228H23.8267H23.8306H23.8345H23.8384H23.8424H23.8464H23.8504H23.8544H23.8585H23.8626H23.8667H23.8709H23.8751H23.8793H23.8836H23.8878H23.8921H23.8965H23.9009H23.9053H23.9097H23.9142H23.9187H23.9232H23.9277H23.9323H23.9369H23.9416H23.9463H23.951H23.9557H23.9605H23.9653H23.9702H23.975H23.98H23.9849H23.9899H23.9949H23.9999H24.005H24.0101H24.0153H24.0204H24.0256H24.0309H24.0362H24.0415H24.0468H24.0522H24.0577H24.0631H24.0686H24.0741H24.0797H24.0853H24.0909H24.0966H24.1023H24.1081H24.1138H24.1197H24.1255H24.1314H24.1373H24.1433H24.1493H24.1554H24.1615H24.1676H24.1737H24.1799H24.1862H24.1924H24.1988H24.2051H24.2115H24.2179H24.2244C24.7315 27.9078 24.8196 27.9093 24.8742 27.9103C24.9384 27.9114 24.9564 27.9117 25.5536 27.9078Z" fill="#172B4D" stroke="#172B4D" stroke-width="0.1"/>
<path d="M17.2401 6.47431C16.9559 5.96742 16.6098 5.49387 16.2088 5.06342C15.2196 6.5114 14.6973 8.20048 14.7056 9.92456C14.7139 11.6486 15.2524 13.3332 16.2555 14.7726V14.7726C16.2659 14.791 16.2802 14.8131 16.2932 14.834L16.5855 14.3535L16.7907 14.0192C16.8102 13.9848 16.8323 13.9503 16.8556 13.9159C16.997 13.7153 17.1271 13.5077 17.2453 13.2941C16.6584 12.2435 16.3516 11.0731 16.3516 9.8848C16.3516 8.69647 16.6584 7.52613 17.2453 6.47554L17.2401 6.47431Z" fill="#172B4D"/>
<path d="M17.2398 16.3875C18.5868 18.628 20.6327 22.2106 20.6327 23.5662H27.5498C27.5498 21.7779 31.1051 16.1221 31.9274 14.7714C33.2234 12.9139 33.7348 10.6636 33.3604 8.46628C32.9859 6.26893 31.753 4.28474 29.9057 2.90669C28.0583 1.52864 25.7314 0.857216 23.3857 1.0254C21.04 1.19359 18.8465 2.18912 17.2398 3.81482" fill="#1F344C"/>
<path d="M17.2402 16.3875C15.8932 18.628 13.8473 22.2106 13.8473 23.5662H6.93022C6.93022 21.7779 3.37491 16.1221 2.55265 14.7714C1.25667 12.9139 0.745245 10.6636 1.11967 8.46628C1.49409 6.26893 2.72705 4.28474 4.57437 2.90669C6.42168 1.52864 8.74862 0.857216 11.0943 1.0254C13.4401 1.19359 15.6335 2.18912 17.2402 3.81482" fill="#1F344C"/>
<path d="M17.0289 3.81474L17.1331 3.7093C18.4405 2.3868 20.1371 1.46794 22.0019 1.07091C23.8667 0.673897 25.8147 0.81679 27.5928 1.48126C29.3711 2.14576 30.8982 3.30153 31.9749 4.79963C33.0516 6.29779 33.6276 8.06872 33.627 9.88219C33.6295 11.6496 33.0817 13.3777 32.053 14.8509C31.9943 14.9474 31.9219 15.0653 31.8382 15.2018C31.3318 16.027 30.4092 17.5306 29.5617 19.0744C29.0669 19.9757 28.5994 20.8878 28.2559 21.6844C27.9091 22.4886 27.6998 23.1512 27.6998 23.5636V23.7136H27.5498H20.6327H20.4827V23.5636C20.4827 23.2539 20.3638 22.7976 20.1518 22.2383C19.9415 21.6837 19.6463 21.044 19.3075 20.3738C18.6302 19.0336 17.7842 17.5816 17.1112 16.4623L17.0647 16.385L17.1113 16.3076C17.4115 15.809 17.6761 15.377 17.8758 15.0512C17.945 14.9382 18.0063 14.838 18.0587 14.7522L18.1869 14.5421L18.3149 14.7523C19.5416 16.7662 20.4676 18.3887 21.1198 19.6981M17.0289 3.81474L20.9861 19.766M17.0289 3.81474L17.1331 3.92019C17.5089 4.30051 17.8483 4.71145 18.1474 5.14818L18.2536 5.30315L18.3812 5.16538C19.6474 3.79888 21.4161 2.93633 23.3308 2.75421C25.2455 2.57209 27.1611 3.08429 28.6906 4.18578C30.2198 5.28711 31.2485 6.89481 31.5717 8.68299C31.8949 10.471 31.4892 12.3091 30.435 13.8267L30.4342 13.828C30.4094 13.8644 30.3859 13.9009 30.3638 13.9376L30.3639 13.9374L30.492 14.0155L30.3636 13.9379L30.1602 14.2713M17.0289 3.81474L26.1152 21.8614M21.1198 19.6981C21.12 19.6985 21.1202 19.6988 21.1203 19.6991L20.9861 19.766M21.1198 19.6981C21.1197 19.6978 21.1195 19.6975 21.1193 19.6972L20.9861 19.766M21.1198 19.6981C21.4822 20.4 21.7982 21.1224 22.0658 21.8614M20.9861 19.766C21.3619 20.4937 21.6873 21.2437 21.9603 22.0114M22.0658 21.8614H21.9603V22.0114M22.0658 21.8614H26.1152M22.0658 21.8614C22.0779 21.8946 22.0898 21.9278 22.1016 21.9611L21.9603 22.0114M21.9603 22.0114L26.1152 21.8614M26.1152 21.8614C26.1032 21.8957 26.0915 21.9297 26.0801 21.9634L26.2222 22.0114V21.8614H26.1152ZM26.1152 21.8614C26.6844 20.2336 27.9702 17.8403 30.1602 14.2713M30.1602 14.2713L30.16 14.2717L30.288 14.3497L30.1602 14.2713Z" fill="#172B4D" stroke="#172B4D" stroke-width="0.3"/>
<path d="M4.31803 14.2771L4.31804 14.277L4.31685 14.2752C4.28006 14.2171 4.24522 14.1589 4.21171 14.1029L4.20914 14.0986C4.17622 14.0436 4.14383 13.9895 4.11385 13.9435C4.09153 13.9055 4.06818 13.8692 4.04406 13.8337L4.04407 13.8337L4.04297 13.8321C2.98323 12.3147 2.57335 10.4743 2.89467 8.68322C3.21602 6.89197 4.24527 5.28107 5.77684 4.17807C7.30863 3.07491 9.22764 2.56301 11.145 2.74764C13.0624 2.93227 14.8322 3.79932 16.0968 5.17082L16.2248 5.30965L16.331 5.15356C16.6298 4.71474 16.9692 4.30177 17.3453 3.91954L17.4493 3.81391L17.3449 3.7087C15.711 2.06138 13.485 1.05509 11.1073 0.886392C8.72964 0.717698 6.37058 1.39865 4.49604 2.79638C2.62129 4.19427 1.3669 6.20811 0.983401 8.44129C0.600133 10.6732 1.11513 12.9591 2.42506 14.8478C2.48567 14.9474 2.56074 15.0698 2.64786 15.2118C3.15593 16.0402 4.07339 17.5359 4.91651 19.0715C5.41131 19.9727 5.87887 20.8847 6.22232 21.6812C6.56909 22.4853 6.77843 23.148 6.77843 23.5607V23.7107H6.92843H13.8455H13.9955V23.5607C13.9955 23.252 14.1144 22.7962 14.3265 22.237C14.5367 21.6826 14.832 21.0428 15.1707 20.3723C15.848 19.0317 16.694 17.5787 17.367 16.4594L17.4135 16.3821L17.3669 16.3048C17.0668 15.8062 16.8022 15.3743 16.6026 15.0485C16.5333 14.9355 16.4719 14.8352 16.4195 14.7493L16.2913 14.5391L16.1633 14.7495C14.153 18.0558 12.9551 20.3102 12.4109 21.8671H8.36303C7.79386 20.2393 6.50806 17.846 4.31803 14.2771Z" fill="#172B4D" stroke="#172B4D" stroke-width="0.3"/>
<path d="M18.1335 9.88236C18.1338 11.0707 17.827 12.2411 17.2398 13.2916C17.358 13.5053 17.4881 13.7128 17.6295 13.9135C17.6529 13.9479 17.675 13.9823 17.6957 14.018L17.8997 14.351L18.192 14.8316C18.2049 14.8107 18.2192 14.7885 18.2296 14.7701C19.2327 13.3307 19.7712 11.6462 19.7795 9.92212C19.7878 8.19804 19.2655 6.50895 18.2764 5.06097C17.8734 5.49193 17.5255 5.96632 17.2398 6.47433C17.8274 7.52423 18.1343 8.69434 18.1335 9.88236V9.88236Z" fill="#172B4D"/>
<path d="M17.8893 14.3522L17.6853 14.0192C17.6646 13.9835 17.6425 13.9491 17.6191 13.9147C17.4777 13.7141 17.3476 13.5065 17.2294 13.2928C17.1112 13.5065 16.9811 13.7141 16.8397 13.9147C16.8163 13.9491 16.7942 13.9835 16.7747 14.018L16.5903 14.3522L16.298 14.8328C16.502 15.1671 16.841 15.7164 17.245 16.3875C17.649 15.7164 17.988 15.1671 18.1919 14.8328L17.8893 14.3522Z" fill="#172B4D"/>
<path d="M17.2399 6.47432C17.5241 5.96743 17.8703 5.49388 18.2713 5.06343C17.9671 4.61923 17.622 4.20138 17.2399 3.81476C16.8579 4.20138 16.5127 4.61923 16.2085 5.06343C16.6096 5.49388 16.9557 5.96743 17.2399 6.47432V6.47432Z" fill="#172B4D"/>
<path d="M13.807 24.9942C13.8112 25.0461 13.8034 25.0982 13.7841 25.1469C13.7648 25.1956 13.7345 25.2397 13.6952 25.2761C13.656 25.3125 13.6088 25.3404 13.557 25.3577C13.5052 25.375 13.4499 25.3814 13.3952 25.3764H7.37186C7.3172 25.3815 7.26204 25.3751 7.21027 25.3577C7.1585 25.3404 7.11138 25.3125 7.07224 25.2761C7.03309 25.2396 7.00288 25.1955 6.98373 25.1468C6.96457 25.0981 6.95695 25.046 6.96139 24.9942C6.96139 24.9303 6.96269 24.8663 6.96399 24.8024C6.96658 24.6747 6.96918 24.5472 6.96139 24.4203L13.807 24.9942ZM13.807 24.9942V24.4424V24.9942ZM13.6031 24.2859V24.2859L13.6049 24.2859C13.6886 24.2829 13.7247 24.297 13.7407 24.3136C13.7558 24.3291 13.7668 24.3614 13.7574 24.4361L13.757 24.4361V24.4424V24.4435V24.4445V24.4456V24.4467V24.4478V24.4488V24.4499V24.451V24.452V24.4531V24.4542V24.4553V24.4563V24.4574V24.4585V24.4596V24.4606V24.4617V24.4628V24.4639V24.4649V24.466V24.4671V24.4681V24.4692V24.4703V24.4714V24.4724V24.4735V24.4746V24.4757V24.4767V24.4778V24.4789V24.48V24.481V24.4821V24.4832V24.4843V24.4853V24.4864V24.4875V24.4886V24.4896V24.4907V24.4918V24.4928V24.4939V24.495V24.4961V24.4971V24.4982V24.4993V24.5004V24.5014V24.5025V24.5036V24.5047V24.5057V24.5068V24.5079V24.509V24.51V24.5111V24.5122V24.5133V24.5143V24.5154V24.5165V24.5176V24.5186V24.5197V24.5208V24.5219V24.5229V24.524V24.5251V24.5262V24.5272V24.5283V24.5294V24.5305V24.5315V24.5326V24.5337V24.5348V24.5358V24.5369V24.538V24.5391V24.5401V24.5412V24.5423V24.5434V24.5444V24.5455V24.5466V24.5477V24.5487V24.5498V24.5509V24.552V24.553V24.5541V24.5552V24.5563V24.5573V24.5584V24.5595V24.5606V24.5616V24.5627V24.5638V24.5649V24.566V24.567V24.5681V24.5692V24.5703V24.5713V24.5724V24.5735V24.5746V24.5756V24.5767V24.5778V24.5789V24.5799V24.581V24.5821V24.5832V24.5842V24.5853V24.5864V24.5875V24.5885V24.5896V24.5907V24.5918V24.5929V24.5939V24.595V24.5961V24.5972V24.5982V24.5993V24.6004V24.6015V24.6025V24.6036V24.6047V24.6058V24.6068V24.6079V24.609V24.6101V24.6112V24.6122V24.6133V24.6144V24.6155V24.6165V24.6176V24.6187V24.6198V24.6208V24.6219V24.623V24.6273V24.6284V24.6295V24.6305V24.6316V24.6327V24.6338V24.6348V24.6359V24.637V24.6381V24.6392V24.6402V24.6413V24.6424V24.6435V24.6445V24.6456V24.6467V24.6478V24.6489V24.6499V24.651V24.6521V24.6532V24.6542V24.6553V24.6564V24.6575V24.6586V24.6596V24.6607V24.6618V24.6629V24.6639V24.665V24.6661V24.6672V24.6682V24.6693V24.6704V24.6715V24.6726V24.6736V24.6747V24.6758V24.6769V24.6779V24.679V24.6801V24.6812V24.6823V24.6833V24.6844V24.6855V24.6866V24.6877V24.6887V24.6898V24.6909V24.692V24.693V24.6941V24.6952V24.6963V24.6974V24.6984V24.6995V24.7006V24.7017V24.7027V24.7038V24.7049V24.706V24.7071V24.7081V24.7092V24.7103V24.7114V24.7124V24.7135V24.7146V24.7157V24.7168V24.7178V24.7189V24.72V24.7211V24.7222V24.7232V24.7243V24.7254V24.7265V24.7275V24.7286V24.7297V24.7308V24.7319V24.7329V24.734V24.7351V24.7362V24.7373V24.7383V24.7394V24.7405V24.7416V24.7426V24.7437V24.7448V24.7459V24.747V24.748V24.7491V24.7502V24.7513V24.7524V24.7534V24.7545V24.7556V24.7567V24.7577V24.7588V24.7599V24.761V24.7621V24.7631V24.7642V24.7653V24.7664V24.7675V24.7685V24.7696V24.7707V24.7718V24.7729V24.7739V24.775V24.7761V24.7772V24.7782V24.7793V24.7804V24.7815V24.7826V24.7836V24.7847V24.7858V24.7869V24.788V24.789V24.7901V24.7912V24.7923V24.7934V24.7944V24.7955V24.7966V24.7977V24.7988V24.7998V24.8009V24.802V24.8031V24.8042V24.8052V24.8063V24.8074V24.8085V24.8095V24.8106V24.8117V24.8128V24.8139V24.8149V24.816V24.8171V24.8182V24.8193V24.8203V24.8214V24.8225V24.8236V24.8247V24.8257V24.8268V24.8279V24.829V24.8301V24.8311V24.8322V24.8333V24.8344V24.8355V24.8365V24.8376V24.8387V24.8398V24.8409V24.8419V24.843V24.8441V24.8452V24.8463V24.8473V24.8484V24.8495V24.8506V24.8517V24.8527V24.8538V24.8549V24.856V24.857V24.8581V24.8592V24.8603V24.8614V24.8624V24.8635V24.8646V24.8657V24.8668V24.8678V24.8689V24.87V24.8711V24.8722V24.8732V24.8743V24.8754V24.8765V24.8776V24.8786V24.8797V24.8808V24.8819V24.883V24.884V24.8851V24.8862V24.8873V24.8884V24.8894V24.8905V24.8916V24.8927V24.8938V24.8948V24.8959V24.897V24.8981V24.8992V24.9002V24.9013V24.9024V24.9035V24.9046V24.9056V24.9067V24.9078V24.9089V24.91V24.911V24.9121V24.9132V24.9143V24.9154V24.9164V24.9175V24.9186V24.9197V24.9208V24.9218V24.9229V24.924V24.9251V24.9262V24.9272V24.9283V24.9294V24.9305V24.9316V24.9326V24.9337V24.9348V24.9359V24.937V24.938V24.9391V24.9402V24.9413V24.9424V24.9434V24.9445V24.9456V24.9467V24.9488V24.9499V24.951V24.9521V24.9532V24.9542V24.9553V24.9564V24.9575V24.9586V24.9596V24.9607V24.9618V24.9629V24.964V24.965V24.9661V24.9672V24.9683V24.9694V24.9704V24.9715V24.9726V24.9737V24.9748V24.9759V24.9769V24.978V24.9791V24.9802V24.9813V24.9823V24.9834V24.9845V24.9856V24.9867V24.9877V24.9888V24.9899V24.991V24.9921V24.9931V24.9942H13.7568L13.7572 24.9983C13.7608 25.0424 13.7541 25.0868 13.7376 25.1284C13.7211 25.17 13.6951 25.208 13.6612 25.2394C13.6273 25.2709 13.5863 25.2952 13.5411 25.3103C13.4959 25.3254 13.4476 25.331 13.3998 25.3266L13.3998 25.3264H13.3952H13.383H13.3707H13.3584H13.3461H13.3339H13.3216H13.3094H13.2971H13.2849H13.2727H13.2605H13.2482H13.236H13.2238H13.2116H13.1994H13.1873H13.1751H13.1629H13.1507H13.1386H13.1264H13.1142H13.1021H13.09H13.0778H13.0657H13.0536H13.0414H13.0293H13.0172H13.0051H12.993H12.9809H12.9688H12.9567H12.9447H12.9326H12.9205H12.9085H12.8964H12.8843H12.8723H12.8603H12.8482H12.8362H12.8242H12.8121H12.8001H12.7881H12.7761H12.7641H12.7521H12.7401H12.7281H12.7161H12.7041H12.6922H12.6802H12.6682H12.6563H12.6443H12.6324H12.6204H12.6085H12.5965H12.5846H12.5727H12.5607H12.5488H12.5369H12.525H12.5131H12.5012H12.4893H12.4774H12.4655H12.4536H12.4417H12.4299H12.418H12.4061H12.3943H12.3824H12.3705H12.3587H12.3468H12.335H12.3232H12.3113H12.2995H12.2877H12.2758H12.264H12.2522H12.2404H12.2286H12.2168H12.205H12.1932H12.1814H12.1696H12.1578H12.146H12.1342H12.1225H12.1107H12.0989H12.0872H12.0754H12.0636H12.0519H12.0401H12.0284H12.0166H12.0049H11.9932H11.9814H11.9697H11.958H11.9462H11.9345H11.9228H11.9111H11.8994H11.8877H11.8759H11.8642H11.8525H11.8408H11.8292H11.8175H11.8058H11.7941H11.7824H11.7707H11.759H11.7474H11.7357H11.724H11.7124H11.7007H11.689H11.6774H11.6657H11.6541H11.6424H11.6308H11.6191H11.6075H11.5959H11.5842H11.5726H11.561H11.5493H11.5377H11.5261H11.5145H11.4912H11.468H11.4564H11.4448H11.4332H11.4216H11.41H11.3984H11.3868H11.3752H11.3636H11.352H11.3404H11.3288H11.3172H11.3056H11.294H11.2825H11.2709H11.2593H11.2477H11.2362H11.2246H11.213H11.2015H11.1899H11.1783H11.1668H11.1552H11.1436H11.1321H11.1205H10.3831H10.3716H10.36H10.3485H10.337H10.3255H10.314H10.3025H10.291H10.2795H10.268H10.2565H10.245H10.2335H10.222H10.2105H10.1989H10.1874H10.1759H10.1644H10.1529H10.1414H10.1299H10.1184H10.1069H10.0953H10.0838H10.0723H10.0608H10.0493H10.0378H10.0263H10.0147H10.0032H9.9917H9.98018H9.96866H9.95714H9.94562H9.93409H9.92257H9.91105H9.89952H9.88799H9.87646H9.86494H9.85341H9.84187H9.83034H9.81881H9.80727H9.79574H9.7842H9.77266H9.76112H9.74958H9.73804H9.7265H9.71496H9.70341H9.69186H9.68031H9.66876H9.65721H9.64566H9.6341H9.62255H9.61099H9.59943H9.58787H9.57631H9.56474H9.55318H9.54161H9.53004H9.51847H9.5069H9.49533H9.48375H9.47217H9.46059H9.44901H9.43743H9.42584H9.41425H9.40266H9.39107H9.37948H9.36788H9.35629H9.34469H9.33309H9.32148H9.30988H9.29827H9.28666H9.27504H9.26343H9.25181H9.24019H9.22857H9.21695H9.20532H9.19369H9.18206H9.17043H9.15879H9.14715H9.13551H9.12387H9.11222H9.10057H9.08892H9.07727H9.06561H9.05395H9.04229H9.03062H9.01896H9.00728H8.99561H8.98394H8.97226H8.96057H8.94889H8.9372H8.92551H8.91382H8.90212H8.89042H8.87872H8.86701H8.85531H8.84359H8.83188H8.82016H8.80844H8.79672H8.78499H8.77326H8.76152H8.74979H8.73804H8.7263H8.71455H8.7028H8.69105H8.67929H8.66753H8.65576H8.644H8.63223H8.62045H8.60867H8.59689H8.5851H8.57331H8.56152H8.54972H8.53792H8.52612H8.51431H8.5025H8.49068H8.47886H8.46704H8.45521H8.44338H8.43154H8.4197H8.40786H8.39601H8.38416H8.37231H8.36045H8.34858H8.33672H8.32485H8.31297H8.30109H8.2892H8.27732H8.26542H8.25353H8.24162H8.22972H8.21781H8.20589H8.19398H8.18205H8.17012H8.15819H8.14626H7.76176H7.74966H7.73756H7.72545H7.71334H7.70122H7.68909H7.67696H7.66482H7.65268H7.64054H7.62838H7.61622H7.60406H7.59189H7.57972H7.56754H7.55535H7.54316H7.53096H7.51876H7.50655H7.49433H7.48211H7.46989H7.45765H7.44542H7.43317H7.42092H7.40867H7.3964H7.38414H7.37186V25.3262L7.36729 25.3266C7.3195 25.331 7.2713 25.3254 7.22615 25.3103C7.181 25.2952 7.14012 25.271 7.10631 25.2395C7.07251 25.208 7.04662 25.1701 7.03026 25.1285C7.0139 25.0869 7.00743 25.0425 7.0112 24.9985L7.01139 24.9985V24.9942C7.01139 24.9325 7.01266 24.8696 7.01394 24.8062C7.01655 24.6773 7.0192 24.5461 7.01129 24.4172L7.01129 24.4172L7.01125 24.4166C7.00591 24.3436 7.02253 24.32 7.03811 24.3089C7.06017 24.2932 7.10093 24.2859 7.17572 24.2859H7.18229H7.18886H7.19542H7.20198H7.20853H7.21507H7.22161H7.22814H7.23467H7.2412H7.24771H7.25423H7.26073H7.26723H7.27373H7.28022H7.2867H7.29318H7.29966H7.30613H7.31259H7.31905H7.3255H7.33195H7.33839H7.34483H7.35126H7.35769H7.36411H7.37053H7.37694H7.38335H7.38975H7.39615H7.40254H7.40893H7.41531H7.42168H7.42806H7.43442H7.44079H7.44715H7.4535H7.45985H7.46619H7.47253H7.47886H7.48519H7.49152H7.49784H7.50415H7.51046H7.51677H7.52307H7.52937H7.53566H7.54195H7.54823H7.55451H7.56079H7.56706H7.57332H7.57958H7.58584H7.5921H7.59834H7.60459H7.61083H7.61706H7.6233H7.62952H7.63575H7.64197H7.64818H7.65439H7.6606H7.6668H7.673H7.67919H7.68539H7.69157H7.69775H7.70393H7.71011H7.71628H7.72245H7.72861H7.73477H7.74093H7.74708H7.75323H7.75937H7.76551H7.77165H7.77778H7.78391H7.79004H7.79616H7.80228H7.80839H7.81451H7.82061H7.82672H7.83282H7.83892H7.84501H7.8511H7.85719H7.86327H7.86936H7.87543H7.88151H7.88758H7.89365H7.89971H7.90577H7.91183H7.91788H7.92394H7.92998H7.93603H7.94207H7.94811H7.95415H7.96018H7.96621H7.97224H7.97826H7.98428H7.9903H7.99632H8.00233H8.00834H8.01435H8.02035H8.02635H8.03235H8.03835H8.04434H8.05033H8.05632H8.06231H8.06829H8.07427H8.08025H8.08622H8.09219H8.09816H8.10413H8.11009H8.11606H8.12202H8.12797H8.13393H8.13988H8.14583H8.15178H8.15773H8.16367H8.16961H8.17555H8.18149H8.18742H8.19335H8.19928H8.20521H8.21114H8.21706H8.22298H8.2289H8.23482H8.24073H8.24665H8.25256H8.25847H8.26438H8.27028H8.27619H8.28209H8.28799H8.29389H8.29979H8.30568H8.31157H8.31746H8.32335H8.32924H8.33513H8.34101H8.3469H8.35278H8.35866H8.36454H8.37041H8.37629H8.38216H8.38804H8.39391H8.39978H8.40565H8.41151H8.41738H8.42324H8.42911H8.43497H8.44083H8.44669H8.45254H8.4584H8.46426H8.47011H8.47596H8.48182H8.48767H8.49352H8.49937H8.50521H8.51106H8.51691H8.52275H8.5286H8.53444H8.54028H8.54612H8.55196H8.5578H8.56364H8.56948H8.57532H8.58115H8.58699H8.59282H8.59866H8.60449H8.61032H8.61616H8.62199H8.62782H8.63365H8.63948H8.64531H8.65114H8.65697H8.6628H8.66862H8.67445H8.68028H8.6861H8.69193H8.69776H8.70358H8.70941H8.71523H8.72106H8.72688H8.73271H8.73853H8.74436H8.75018H8.756H8.76183H8.76765H8.77348H8.7793H8.78512H8.79095H8.79677H8.8026H8.80842H8.81424H8.82007H8.82589H8.83172H8.83754H8.84337H8.84919H8.85502H8.86084H8.86667H8.8725H8.87832H8.88415H8.88998H8.89581H8.90164H8.90747H8.9133H8.91913H8.92496H8.93079H8.93662H8.94245H8.94828H8.95412H8.95995H8.96579H8.97162H8.97746H8.9833H8.98913H8.99497H9.00081H9.00665H9.01249H9.01834H9.02418H9.03002H9.03587H9.04171H9.04756H9.05341H9.05926H9.06511H9.07096H9.07681H9.08266H9.08852H9.09437H9.10023H9.10609H9.11194H9.1178H9.12367H9.12953H9.13539H9.14126H9.14713H9.15299H9.15886H9.16473H9.17061H9.17648H9.18236H9.18823H9.19411H9.19999H9.20587H9.21176H9.21764H9.22353H9.22941H9.2353H9.2412H9.24709H9.25298H9.25888H9.26478H9.27068H9.27658H9.28248H9.28839H9.2943H9.30021H9.30612H9.31203H9.31795H9.32386H9.32978H9.33571H9.34163H9.34756H9.35348H9.35941H9.36535H9.37128H9.37722H9.38315H9.3891H9.39504H9.40098H9.40693H9.41288H9.41883H9.42479H9.43075H9.43671H9.44267H9.44863H9.4546H9.46057H9.46654H9.47251H9.47849H9.48447H9.49045H9.49644H9.50243H9.50842H9.51441H9.52041H9.5264H9.5324H9.53841H9.54442H9.55043H9.55644H9.56245H9.56847H9.57449H9.58052H9.58654H9.59257H9.59861H9.60464H9.61068H9.61672H9.62277H9.62882H9.63487H9.64092H9.64698H9.65304H9.65911H9.66517H9.67124H9.67732H9.68339H9.68948H9.69556H9.70165H9.70774H9.71383H9.71993H9.72603H9.73213H9.73824H9.74435H9.75047H9.75659H9.76271H9.76883H9.77496H9.7811H9.78723H9.79337H9.79952H9.80567H9.81182H9.81797H9.82413H9.83029H9.83646H9.84263H9.84881H9.85499H9.86117H9.86735H9.87354H9.87974H9.88594H9.89214H9.89835H9.90456H9.91077H9.91699H9.92321H9.92944H9.93567H9.94191H9.94815H9.95439H9.96064H9.96689H9.97315H9.97941H9.98567H9.99194H9.99822H10.0045H10.0108H10.0171H10.0234H10.0297H10.036H10.0423H10.0486H10.0549H10.0612H10.0675H10.0739H10.0802H10.0865H10.0929H10.0992H10.1056H10.1119H10.1183H10.1247H10.131H10.1374H10.1438H10.1502H10.1566H10.163H10.1694H10.1758H10.1822H10.1886H10.195H10.2015H10.2079H10.2143H10.2208H10.2272H10.2337H10.2401H10.2466H10.2531H10.2595H10.266H10.2725H10.279H10.2855H10.292H10.2985H10.305H10.3114H10.3179H10.3244H10.3309H10.3374H10.3439H10.3504H10.3569H10.3634H10.3699H10.3764H10.3829H10.3894H10.3958H10.4023H10.4088H10.4153H10.4218H10.4283H10.4348H10.4413H10.4478H10.4543H10.4608H10.4673H10.4738H10.4802H10.4867H10.4932H10.4997H10.5062H10.5127H10.5192H10.5257H10.5322H10.5387H10.5452H10.5517H10.5582H10.5646H10.5711H10.5776H10.5841H10.5906H10.5971H10.6036H10.6101H10.6166H10.6231H10.6296H10.6361H10.6426H10.649H10.6555H10.662H10.6685H10.675H10.6815H10.688H10.6945H10.701H10.7075H10.714H10.7205H10.727H10.7334H10.7399H10.7464H10.7529H10.7594H10.7659H10.7724H10.7789H10.7854H10.7919H10.7984H10.8049H10.8114H10.8178H10.8243H10.8308H10.8373H10.8438H10.8503H10.8568H10.8633H10.8698H10.8763H10.8828H10.8893H10.8958H10.9022H10.9087H10.9152H10.9217H10.9282H10.9347H10.9412H10.9477H10.9542H10.9607H10.9672H10.9737H10.9802H10.9866H10.9931H10.9996H11.0061H11.0126H11.0191H11.0256H11.0321H11.0386H11.0451H11.0516H11.0581H11.0646H11.071H11.0775H11.084H11.0905H11.097H11.1035H11.11H11.1165H11.123H11.1295H11.136H11.1425H11.149H11.1554H11.1619H11.1684H11.1749H11.1814H11.1879H11.1944H11.2009H11.2074H11.2139H11.2204H11.2269H11.2334H11.2399H11.2463H11.2528H11.2593H11.2658H11.2723H11.2788H11.2853H11.2918H11.2983H11.3048H11.3113H11.3178H11.3243H11.3307H11.3372H11.3437H11.3502H11.3567H11.3632H11.3697H11.3762H11.3827H11.3892H11.3957H11.4022H11.4087H11.4151H11.4216H11.4281H11.4346H11.4411H11.4476H11.4541H11.4606H11.4671H11.4736H11.4801H11.4866H11.4931H11.4995H11.506H11.5125H11.519H11.5255H11.532H11.5385H11.545H11.5515H11.558H11.5645H11.571H11.5775H11.5839H11.5904H11.5969H11.6034H11.6099H11.6164H11.6229H11.6294H11.6359H11.6424H11.6489H11.6554H11.6619H11.6683H11.6748H11.6813H11.6878H11.6943H11.7008H11.7073H11.7138H11.7203H11.7268H11.7333H11.7398H11.7463H11.7527H11.7592H11.7657H11.7722H11.7787H11.7852H11.7917H11.7982H11.8047H11.8112H11.8177H11.8242H11.8307H11.8371H11.8436H11.8501H11.8566H11.8631H11.8696H11.8761H11.8826H11.8891H11.8956H11.9021H11.9086H11.9151H11.9215H11.928H11.9345H11.941H11.9475H11.954H11.9605H11.967H11.9735H11.98H11.9865H11.993H11.9995H12.0059H12.0124H12.0189H12.0254H12.0319H12.0384H12.0449H12.0514H12.0579H12.0644H12.0709H12.0774H12.0839H12.0903H12.0968H12.1033H12.1098H12.1163H12.1228H12.1293H12.1358H12.1423H12.1488H12.1553H12.1618H12.1683H12.1748H12.1812H12.1877H12.1942H12.2007H12.2072H12.2137H12.2202H12.2267H12.2332H12.2397H12.2462H12.2527H12.2592H12.2656H12.2721H12.2786H12.2851H12.2916H12.2981H12.3046H12.3111H12.3176H12.3241H12.3306H12.3371H12.3436H12.35H12.3565H12.363H12.3695H12.376H12.3825H12.389H12.3955H12.402H12.4085H12.415H12.4215H12.428H12.4344H12.4409H12.4474H12.4539H12.4604H12.4669H12.4734H12.4799H12.4864H12.4929H12.4994H12.5059H12.5124H12.5188H12.5253H12.5318H12.5383H12.5448H12.5513H12.5578H12.5643H12.5708H12.5773H12.5838H12.5903H12.5968H12.6032H12.6097H12.6162H12.6227H12.6292H12.6357H12.6422H12.6487H12.6552H12.6617H12.6682H12.6747H12.6812H12.6876H12.6941H12.7006H12.7071H12.7136H12.7201H12.7266H12.7331H12.7396H12.7461H12.7526H12.7591H12.7656H12.772H12.7785H12.785H12.7915H12.798H12.8045H12.811H12.8175H12.824H12.8305H12.837H12.8435H12.85H12.8564H12.8629H12.8694H12.8759H12.8824H12.8889H12.8954H12.9019H12.9084H12.9149H12.9214H12.9279H12.9344H12.9408H12.9473H12.9538H12.9603H12.9668H12.9733H12.9798H12.9863H12.9928H12.9993H13.0058H13.0123H13.0188H13.0252H13.0317H13.0382H13.0447H13.0512H13.0577H13.0642H13.0707H13.0772H13.0837H13.0902H13.0967H13.1032H13.1097H13.1161H13.1226H13.1291H13.1356H13.1421H13.1486H13.1551H13.1616H13.1681H13.1746H13.1811H13.1876H13.1941H13.2005H13.207H13.2135H13.22H13.2265H13.233H13.2395H13.246H13.2525H13.259H13.2655H13.272H13.2785H13.2849H13.2914H13.2979H13.3044H13.3109H13.3174H13.3239H13.3304H13.3369H13.3434H13.3499H13.3564H13.3629H13.3693H13.3758H13.3823H13.3888H13.3953H13.4018H13.4083H13.4148H13.4213H13.4278H13.4343H13.4408H13.4473H13.4537H13.4602H13.4667H13.4732H13.4797H13.4862H13.4927H13.4992H13.5057H13.5122H13.5187H13.5252H13.5317H13.5381H13.5446H13.5511H13.5576H13.5641H13.5706H13.5771H13.5836H13.5901H13.5966H13.6031Z" fill="#172B4D" stroke="#172B4D" stroke-width="0.1"/>
<path d="M7.44055 26.233C7.44922 26.3601 7.44632 26.4883 7.44343 26.6161C7.44199 26.6799 7.44055 26.7435 7.44055 26.8069C7.43634 26.8587 7.44413 26.9107 7.46336 26.9593C7.4826 27.0079 7.51282 27.0519 7.55191 27.0883C7.591 27.1247 7.63802 27.1526 7.68969 27.17C7.74135 27.1874 7.79642 27.194 7.85103 27.1892H12.9171C12.9717 27.1947 13.0269 27.1888 13.0789 27.1719C13.1308 27.1551 13.1782 27.1276 13.2177 27.0915C13.2573 27.0554 13.2879 27.0116 13.3076 26.963C13.3272 26.9145 13.3354 26.8625 13.3314 26.8106C13.3366 26.6876 13.3349 26.5646 13.3332 26.442C13.3323 26.3808 13.3314 26.3198 13.3314 26.2588C13.3431 26.1015 13.2938 26.0486 13.1223 26.0486C12.4292 26.0533 12.1121 26.0521 11.6997 26.0506C11.4536 26.0497 11.1735 26.0486 10.7594 26.0486H7.65488C7.5094 26.0486 7.43016 26.0732 7.44055 26.233ZM7.44055 26.233L7.49045 26.2298C7.4857 26.1568 7.50244 26.1329 7.51826 26.1216C7.54034 26.1059 7.58084 26.0986 7.65488 26.0986H7.66146H7.66804H7.67461H7.68117H7.68773H7.69428H7.70083H7.70737H7.71391H7.72044H7.72696H7.73348H7.73999H7.7465H7.75301H7.7595H7.76599H7.77248H7.77896H7.78544H7.79191H7.79837H7.80483H7.81129H7.81774H7.82418H7.83062H7.83706H7.84349H7.84991H7.85633H7.86274H7.86915H7.87555H7.88195H7.88835H7.89474H7.90112H7.9075H7.91387H7.92024H7.92661H7.93297H7.93932H7.94567H7.95202H7.95836H7.96469H7.97102H7.97735H7.98367H7.98999H7.9963H8.00261H8.00891H8.01521H8.0215H8.02779H8.03408H8.04036H8.04664H8.05291H8.05917H8.06544H8.0717H8.07795H8.0842H8.09045H8.09669H8.10293H8.10916H8.11539H8.12161H8.12783H8.13405H8.14026H8.14647H8.15267H8.15887H8.16507H8.17126H8.17745H8.18364H8.18982H8.19599H8.20216H8.20833H8.2145H8.22066H8.22682H8.23297H8.23912H8.24526H8.25141H8.25755H8.26368H8.26981H8.27594H8.28206H8.28818H8.2943H8.30041H8.30652H8.31263H8.31873H8.32483H8.33093H8.33702H8.34311H8.34919H8.35527H8.36135H8.36743H8.3735H8.37957H8.38564H8.3917H8.39776H8.40381H8.40987H8.41592H8.42196H8.42801H8.43405H8.44009H8.44612H8.45215H8.45818H8.46421H8.47023H8.47625H8.48227H8.48828H8.49429H8.5003H8.50631H8.51231H8.51831H8.52431H8.5303H8.53629H8.54228H8.54827H8.55425H8.56023H8.56621H8.57219H8.57816H8.58413H8.5901H8.59607H8.60203H8.60799H8.61395H8.61991H8.62586H8.63181H8.63776H8.64371H8.64965H8.6556H8.66154H8.66747H8.67341H8.67934H8.68528H8.6912H8.69713H8.70306H8.70898H8.7149H8.72082H8.72674H8.73265H8.73857H8.74448H8.75039H8.75629H8.7622H8.7681H8.774H8.7799H8.7858H8.7917H8.79759H8.80349H8.80938H8.81527H8.82115H8.82704H8.83293H8.83881H8.84469H8.85057H8.85645H8.86233H8.8682H8.87407H8.87995H8.88582H8.89169H8.89756H8.90342H8.90929H8.91515H8.92102H8.92688H8.93274H8.9386H8.94446H8.95031H8.95617H8.96202H8.96788H8.97373H8.97958H8.98543H8.99128H8.99713H9.00298H9.00882H9.01467H9.02051H9.02636H9.0322H9.03804H9.04388H9.04972H9.05556H9.0614H9.06724H9.07308H9.07891H9.08475H9.09058H9.09642H9.10225H9.10809H9.11392H9.11975H9.12558H9.13141H9.13725H9.14308H9.14891H9.15474H9.16056H9.16639H9.17222H9.17805H9.18388H9.1897H9.19553H9.20136H9.20719H9.21301H9.21884H9.22466H9.23049H9.23632H9.24214H9.24797H9.25379H9.25962H9.26544H9.27127H9.2771H9.28292H9.28875H9.29457H9.3004H9.30623H9.31205H9.31788H9.32371H9.32953H9.33536H9.34119H9.34702H9.35284H9.35867H9.3645H9.37033H9.37616H9.38199H9.38782H9.39365H9.39948H9.40532H9.41115H9.41698H9.42281H9.42865H9.43448H9.44032H9.44616H9.45199H9.45783H9.46367H9.46951H9.47535H9.48119H9.48703H9.49287H9.49872H9.50456H9.51041H9.51625H9.5221H9.52795H9.5338H9.53965H9.5455H9.55135H9.5572H9.56306H9.56891H9.57477H9.58063H9.58648H9.59234H9.59821H9.60407H9.60993H9.6158H9.62166H9.62753H9.6334H9.63927H9.64514H9.65102H9.65689H9.66277H9.66864H9.67452H9.6804H9.68629H9.69217H9.69806H9.70394H9.70983H9.71572H9.72162H9.72751H9.73341H9.7393H9.7452H9.7511H9.75701H9.76291H9.76882H9.77473H9.78064H9.78655H9.79246H9.79838H9.8043H9.81022H9.81614H9.82206H9.82799H9.83392H9.83985H9.84578H9.85172H9.85765H9.86359H9.86953H9.87548H9.88142H9.88737H9.89332H9.89928H9.90523H9.91119H9.91715H9.92311H9.92908H9.93504H9.94101H9.94699H9.95296H9.95894H9.96492H9.9709H9.97689H9.98287H9.98887H9.99486H10.0009H10.0069H10.0129H10.0189H10.0249H10.0309H10.0369H10.0429H10.0489H10.0549H10.061H10.067H10.073H10.0791H10.0851H10.0911H10.0972H10.1032H10.1093H10.1153H10.1214H10.1274H10.1335H10.1396H10.1456H10.1517H10.1578H10.1639H10.1699H10.176H10.1821H10.1882H10.1943H10.2004H10.2065H10.2126H10.2187H10.2248H10.2309H10.237H10.2432H10.2493H10.2554H10.2616H10.2677H10.2738H10.28H10.2861H10.2923H10.2984H10.3046H10.3108H10.3169H10.3231H10.3293H10.3354H10.3416H10.3478H10.354H10.3602H10.3664H10.3726H10.3788H10.385H10.3912H10.3975H10.4037H10.4099H10.4161H10.4224H10.4286H10.4349H10.4411H10.4474H10.4536H10.4599H10.4661H10.4724H10.4787H10.485H10.4912H10.4975H10.5038H10.5101H10.5164H10.5227H10.529H10.5354H10.5417H10.548H10.5543H10.5607H10.567H10.5733H10.5797H10.586H10.5924H10.5988H10.6051H10.6115H10.6179H10.6243H10.6306H10.637H10.6434H10.6498H10.6562H10.6627H10.6691H10.6755H10.6819H10.6884H10.6948H10.7012H10.7077H10.7141H10.7206H10.7271H10.7335H10.74H10.7465H10.753H10.7594C11.1732 26.0986 11.4531 26.0997 11.6992 26.1006C12.1118 26.1021 12.4292 26.1033 13.1225 26.0986C13.2067 26.0987 13.243 26.1126 13.2599 26.1298C13.2759 26.146 13.2873 26.1786 13.2816 26.2551L13.2814 26.2551V26.2588C13.2814 26.3213 13.2823 26.3831 13.2832 26.4447C13.2849 26.5664 13.2866 26.6869 13.2815 26.8085L13.2811 26.8085L13.2816 26.8144C13.2849 26.8585 13.278 26.9028 13.2612 26.9443C13.2444 26.9857 13.2181 27.0234 13.184 27.0546C13.1499 27.0858 13.1087 27.1097 13.0634 27.1244C13.0181 27.1391 12.9698 27.1443 12.9221 27.1394L12.9221 27.1392H12.9171H12.9048H12.8925H12.8803H12.8681H12.8559H12.8438H12.8317H12.8196H12.8076H12.7955H12.7835H12.7715H12.7596H12.7477H12.7358H12.7239H12.7121H12.7002H12.6884H12.6767H12.6649H12.6532H12.6415H12.6299H12.6182H12.6066H12.595H12.5835H12.5719H12.5604H12.5489H12.5375H12.526H12.5146H12.5032H12.4919H12.4805H12.4692H12.4579H12.4467H12.4354H12.4242H12.413H12.4018H12.3907H12.3795H12.3684H12.3573H12.3463H12.3353H12.3242H12.3132H12.3023H12.2913H12.2804H12.2695H12.2586H12.2478H12.2369H12.2261H12.2153H12.2045H12.1938H12.1831H12.1723H12.1617H12.151H12.1403H12.1297H12.1191H12.1085H12.098H12.0874H12.0769H12.0664H12.0559H12.0454H12.035H12.0246H12.0141H12.0038H11.9934H11.983H11.9727H11.9624H11.9521H11.9418H11.9316H11.9213H11.9111H11.9009H11.8907H11.8806H11.8704H11.8603H11.8502H11.8401H11.83H11.82H11.8099H11.7999H11.7899H11.7799H11.7699H11.76H11.75H11.7401H11.7302H11.7203H11.7104H11.7006H11.6907H11.6809H11.6711H11.6613H11.6515H11.6417H11.632H11.6222H11.6125H11.6028H11.5931H11.5834H11.5738H11.5641H11.5545H11.5449H11.5353H11.5257H11.5161H11.5066H11.497H11.4875H11.478H11.4684H11.4589H11.4495H11.44H11.4305H11.4211H11.4117H11.4022H11.3928H11.3835H11.3741H11.3647H11.3553H11.346H11.3367H11.3273H11.318H11.3087H11.2995H11.2902H11.2809H11.2717H11.2624H11.2532H11.244H11.2348H11.2256H11.2164H11.2072H11.198H11.1889H11.1797H11.1706H11.1615H11.1523H11.1432H11.1341H11.125H11.116H11.1069H11.0978H11.0888H11.0797H11.0707H11.0617H11.0526H11.0436H11.0346H11.0256H11.0166H11.0077H10.9987H10.9897H10.9808H10.9718H10.9629H10.954H10.945H10.9361H10.9272H10.9183H10.9094H10.9005H10.8916H10.8827H10.8739H10.865H10.8561H10.8473H10.8384H10.8296H10.8207H10.8119H10.8031H10.7943H10.7854H10.7766H10.7678H10.759H10.7502H10.7414H10.7326H10.7239H10.7151H10.7063H10.6975H10.6888H10.68H10.6712H10.6625H10.6537H10.645H10.6362H10.6275H10.6188H10.61H10.6013H10.5926H10.5838H10.5751H10.5664H10.5577H10.5489H10.5402H10.5315H10.5228H10.5141H10.5054H10.4967H10.488H10.4793H10.4706H10.4618H10.4531H10.4444H10.4357H10.427H10.4183H10.4096H10.401H10.3923H10.3836H10.3749H10.3662H10.3575H10.3488H10.3401H10.3314H10.3227H10.314H10.3053H10.2966H10.2879H10.2792H10.2704H10.2617H10.253H10.2443H10.2356H10.2269H10.2182H10.2095H10.2007H10.192H10.1833H10.1746H10.1658H10.1571H10.1484H10.1396H10.1309H10.1221H10.1134H10.1046H10.0959H10.0871H10.0784H10.0696H10.0608H10.0521H10.0433H10.0345H10.0257H10.0169H10.0081H9.99932H9.99051H9.9817H9.97288H9.96406H9.95524H9.94641H9.93757H9.92873H9.91988H9.91103H9.90217H9.8933H9.88443H9.87555H9.86667H9.85777H9.84888H9.83997H9.83106H9.82215H9.81322H9.80429H9.79535H9.7864H9.77745H9.76849H9.75952H9.75054H9.74156H9.73257H9.72356H9.71456H9.70554H9.69651H9.68748H9.67844H9.66938H9.66032H9.65125H9.64218H9.63309H9.62399H9.61488H9.60577H9.59664H9.58751H9.57836H9.56921H9.56004H9.55087H9.54168H9.53249H9.52328H9.51406H9.50483H9.4956H9.48635H9.47709H9.46781H9.45853H9.44924H9.43993H9.43061H9.42128H9.41194H9.40259H9.39322H9.38385H9.37446H9.36506H9.35564H9.34621H9.33677H9.32732H9.31786H9.30838H9.29889H9.28938H9.27986H9.27033H9.26079H9.25123H9.24166H9.23207H9.22247H9.21286H9.20323H9.19358H9.18393H9.17425H9.16457H9.15486H9.14515H9.13542H9.12567H9.11591H9.10613H9.09634H9.08653H9.07671H9.06687H9.05701H9.04714H9.03725H9.02735H9.01743H9.00749H8.99754H8.98757H8.97758H8.96758H8.95756H8.94752H8.93747H8.9274H8.91731H8.9072H8.89708H8.88693H8.87677H8.8666H8.8564H8.84619H8.83595H8.8257H8.81543H8.80515H8.79484H8.78451H8.77417H8.76381H8.75342H8.74302H8.7326H8.72216H8.7117H8.70122H8.69072H8.6802H8.66966H8.6591H8.64852H8.63792H8.6273H8.61666H8.60599H8.59531H8.58461H8.57388H8.56314H8.55237H8.54158H8.53077H8.51994H8.50908H8.49821H8.48731H8.47639H8.46545H8.45449H8.4435H8.43249H8.42146H8.41041H8.39933H8.38823H8.37711H8.36596H8.3548H8.3436H8.33239H8.32115H8.30989H8.2986H8.28729H8.27596H8.2646H8.25322H8.24181H8.23038H8.21892H8.20744H8.19594H8.18441H8.17285H8.16127H8.14967H8.13804H8.12638H8.1147H8.10299H8.09126H8.0795H8.06772H8.0559H8.04407H8.0322H8.02032H8.0084H7.99646H7.98449H7.97249H7.96047H7.94842H7.93634H7.92424H7.9121H7.89994H7.88776H7.87554H7.8633H7.85103V27.139L7.84665 27.1394C7.79888 27.1436 7.75075 27.1378 7.70566 27.1226C7.66058 27.1074 7.61977 27.0832 7.58598 27.0517C7.55221 27.0203 7.52629 26.9824 7.50985 26.9409C7.49342 26.8994 7.48681 26.855 7.49039 26.811L7.49055 26.811V26.8069C7.49055 26.746 7.49195 26.6835 7.49337 26.6203C7.49628 26.4912 7.49925 26.3589 7.49044 26.2296L7.44055 26.233Z" fill="#172B4D" stroke="#172B4D" stroke-width="0.1"/>
<path d="M11.8535 27.9078L11.8536 27.9078C11.9368 27.9072 11.9744 27.9224 11.9913 27.9399C12.0068 27.9558 12.0174 27.9869 12.0076 28.056L12.0071 28.0559V28.063C12.0071 28.126 12.008 28.1882 12.0089 28.25C12.0106 28.372 12.0123 28.4924 12.0072 28.614L12.0068 28.6139L12.0073 28.6201C12.0109 28.6642 12.0043 28.7085 11.9878 28.75C11.9714 28.7915 11.9455 28.8294 11.9117 28.8608C11.8779 28.8923 11.8371 28.9166 11.792 28.9318C11.7469 28.947 11.6988 28.9527 11.651 28.9485L11.6511 28.9483H11.6467H9.12014V28.9481L9.11576 28.9485C9.06799 28.9527 9.01986 28.947 8.97477 28.9318C8.9297 28.9166 8.88888 28.8923 8.85509 28.8608C8.82132 28.8294 8.7954 28.7915 8.77897 28.75C8.76253 28.7085 8.75592 28.6642 8.7595 28.6201L8.75966 28.6201V28.6161C8.75966 28.5548 8.76093 28.4923 8.76221 28.4292C8.76482 28.3006 8.76749 28.1693 8.75957 28.0403L8.75957 28.0403L8.75956 28.0401C8.75482 27.9672 8.77153 27.9428 8.78759 27.9312C8.80968 27.9153 8.85018 27.9078 8.92399 27.9078H8.93056H8.93708H8.94357H8.95001H8.95641H8.96278H8.96911H8.97539H8.98164H8.98785H8.99402H9.00015H9.00625H9.0123H9.01832H9.0243H9.03024H9.03615H9.04201H9.04784H9.05364H9.05939H9.06511H9.0708H9.07644H9.08205H9.08763H9.09316H9.09867H9.10413H9.10956H9.11496H9.12032H9.12565H9.13094H9.13619H9.14142H9.1466H9.15176H9.15688H9.16196H9.16701H9.17203H9.17701H9.18196H9.18688H9.19177H9.19662H9.20144H9.20622H9.21098H9.2157H9.22039H9.22505H9.22968H9.23427H9.23884H9.24337H9.24787H9.25234H9.25678H9.26119H9.26557H9.26991H9.27423H9.27852H9.28278H9.28701H9.2912H9.29537H9.29951H9.30363H9.30771H9.31176H9.31579H9.31978H9.32375H9.32769H9.3316H9.33549H9.33934H9.34317H9.34697H9.35075H9.35449H9.35821H9.36191H9.36557H9.36922H9.37283H9.37642H9.37998H9.38352H9.38703H9.39051H9.39397H9.39741H9.40082H9.4042H9.40756H9.4109H9.41421H9.4175H9.42076H9.424H9.42722H9.43041H9.43358H9.43672H9.43984H9.44294H9.44602H9.44907H9.4521H9.45511H9.4581H9.46106H9.464H9.46692H9.46982H9.4727H9.47556H9.47839H9.48121H9.484H9.48677H9.48953H9.49226H9.49497H9.49766H9.50033H9.50299H9.50562H9.50823H9.51083H9.5134H9.51596H9.51849H9.52101H9.52351H9.526H9.52846H9.53091H9.53333H9.53574H9.53814H9.54051H9.54287H9.54521H9.54754H9.54984H9.55213H9.55441H9.55667H9.55891H9.56114H9.56335H9.56554H9.56772H9.56988H9.57203H9.57417H9.57629H9.57839H9.58048H9.58256H9.58462H9.58666H9.5887H9.59072H9.59272H9.59471H9.59669H9.59866H9.60061H9.60255H9.60448H9.60639H9.6083H9.61019H9.61206H9.61393H9.61579H9.61763H9.61946H9.62128H9.62309H9.62489H9.62668H9.62845H9.63022H9.63197H9.63372H9.63546H9.63718H9.6389H9.6406H9.6423H9.64399H9.64567H9.64734H9.649H9.65065H9.6523H9.65393H9.65556H9.65718H9.65879H9.6604H9.66199H9.66358H9.66516H9.66674H9.66831H9.66987H9.67142H9.67297H9.67451H9.67605H9.67758H9.6791H9.68062H9.68214H9.68364H9.68515H9.68664H9.68814H9.68962H9.69111H9.69259H9.69406H9.69553H9.697H9.69846H9.69992H9.70138H9.70283H9.70428H9.70573H9.70717H9.70861H9.71005H9.71149H9.71292H9.71435H9.71578H9.71721H9.71864H9.72006H9.72149H9.72291H9.72433H9.72575H9.72717H9.72859H9.73001H9.73143H9.73285H9.73427H9.73569H9.73711H9.73853H9.73995H9.74138H9.7428H9.74422H9.74565H9.74708H9.74851H9.74994H9.75137H9.75281H9.75424H9.75569H9.75713H9.75857H9.76002H9.76147H9.76293H9.76439H9.76585H9.76732H9.76879H9.77026H9.77174H9.77322H9.77471H9.7762H9.77769H9.77919H9.7807H9.78221H9.78373H9.78525H9.78678H9.78831H9.78986H9.7914H9.79295H9.79451H9.79608H9.79765H9.79923H9.80082H9.80242H9.80402H9.80563H9.80724H9.80887H9.8105H9.81215H9.8138H9.81545H9.81712H9.8188H9.82048H9.82218H9.82388H9.8256H9.82732H9.82905H9.83079H9.83255H9.83431H9.83608H9.83787H9.83966H9.84147H9.84329H9.84512H9.84695H9.84881H9.85067H9.85254H9.85443H9.85633H9.85824H9.86016H9.8621H9.86405H9.86601H9.86799H9.86998H9.87198H9.87399H9.87602H9.87807H9.88012H9.88219H9.88428H9.88638H9.88849H9.89062H9.89277H9.89493H9.8971H9.89929H9.9015H9.90372H9.90596H9.90821H9.91048H9.91277H9.91507H9.91739H9.91973H9.92208H9.92445H9.92684H9.92925H9.93167H9.93411H9.93657H9.93904H9.94154H9.94405H9.94659H9.94914H9.95171H9.95429H9.9569H9.95953H9.96218H9.96484H9.96753H9.97024H9.97296H9.97571H9.97848H9.98126H9.98407H9.9869H9.98975H9.99262H9.99552H9.99843H10.0014H10.0043H10.0073H10.0103H10.0133H10.0164H10.0194H10.0225H10.0257H10.0288H10.032H10.0351H10.0383H10.0416H10.0448H10.0481H10.0514H10.0548H10.0581H10.0615H10.0649H10.0683H10.0718H10.0752H10.0787H10.0823H10.0858H10.0894H10.093H10.0967H10.1003H10.104H10.1077H10.1115H10.1152H10.119H10.1228H10.1267H10.1306H10.1345H10.1384H10.1424H10.1463H10.1504H10.1544H10.1585H10.1626H10.1667H10.1709H10.1751H10.1793H10.1835H10.1878H10.1921H10.1965H10.2008H10.2052H10.2097H10.2141H10.2186H10.2231H10.2277H10.2323H10.2369H10.2415H10.2462H10.2509H10.2557H10.2605H10.2653H10.2701H10.275H10.2799H10.2848H10.2898H10.2948H10.2999H10.3049H10.3101H10.3152H10.3204H10.3256H10.3308H10.3361H10.3414H10.3468H10.3522H10.3576H10.363H10.3685H10.3741H10.3796H10.3852H10.3909H10.3965H10.4022H10.408H10.4138H10.4196H10.4254H10.4313H10.4373H10.4432H10.4493H10.4553H10.4614H10.4675H10.4737H10.4799H10.4861H10.4924H10.4987H10.505H10.5114H10.5179H10.5243C11.0314 27.9078 11.1198 27.9093 11.1746 27.9103C11.2389 27.9114 11.2571 27.9117 11.8535 27.9078Z" fill="#172B4D" stroke="#172B4D" stroke-width="0.1"/>
</svg>
